<?xml version="1.0" encoding="UTF-8"?><svg id="shapes" xmlns="http://www.w3.org/2000/svg" xmlns:xlink="http://www.w3.org/1999/xlink" viewBox="0 0 2556.2 599.11"><defs><style>.cls-1{fill:#f29900;}.cls-2{fill:#ea4335;}.cls-3{fill:#a50e0e;}.cls-4{fill:#c5221f;}.cls-5{fill:#e37400;}.cls-6{fill:#174ea6;}.cls-7{fill:#4285f4;}.cls-8{fill:#1967d2;}.cls-9{fill:#9aa0a6;}.cls-10{stroke:url(#linear-gradient);}.cls-10,.cls-11,.cls-12,.cls-13,.cls-14,.cls-15,.cls-16,.cls-17{fill:none;stroke-linecap:round;stroke-miterlimit:10;}.cls-10,.cls-13,.cls-14,.cls-15,.cls-16,.cls-17{stroke-width:30px;}.cls-11{stroke-dasharray:0 0 .05 6;}.cls-11,.cls-12{stroke:#9aa0a6;stroke-width:2px;}.cls-12{stroke-dasharray:0 0 .05 6;}.cls-13{stroke:url(#linear-gradient-6);}.cls-14{stroke:url(#linear-gradient-5);}.cls-15{stroke:url(#linear-gradient-2);}.cls-16{stroke:url(#linear-gradient-3);}.cls-17{stroke:url(#linear-gradient-4);}</style><linearGradient id="linear-gradient" x1="927.78" y1="80.17" x2="1184.08" y2="80.17" gradientUnits="userSpaceOnUse"><stop offset="0" stop-color="#fcc934"/><stop offset="1" stop-color="#fbbc04"/></linearGradient><linearGradient id="linear-gradient-2" x1="563.51" y1="315.19" x2="754.99" y2="315.19" gradientUnits="userSpaceOnUse"><stop offset="0" stop-color="#ee675c"/><stop offset="1" stop-color="#ea4335"/></linearGradient><linearGradient id="linear-gradient-3" x1="114.78" y1="379.22" x2="381.25" y2="379.22" xlink:href="#linear-gradient-2"/><linearGradient id="linear-gradient-4" x1="1763.2" y1="408.39" x2="1763.2" y2="171.36" gradientUnits="userSpaceOnUse"><stop offset="0" stop-color="#669df6"/><stop offset="1" stop-color="#4285f4"/></linearGradient><linearGradient id="linear-gradient-5" x1="2158.79" y1="425.96" x2="2401.01" y2="425.96" gradientUnits="userSpaceOnUse"><stop offset="0" stop-color="#4285f4"/><stop offset="1" stop-color="#669df6"/></linearGradient><linearGradient id="linear-gradient-6" x1="2492.36" y1="186.33" x2="2492.36" y2="-63.83" gradientUnits="userSpaceOnUse"><stop offset="0" stop-color="#4285f4"/><stop offset="1" stop-color="#669df6"/></linearGradient></defs><circle class="cls-9" cx="1996.75" cy="479.74" r="5"/><path class="cls-11" d="m-8.15,596.23c10.48-24.19,56.4-121.96,137.94-181.78,71.25-52.28,193.23-72.4,289.23-72.4h131.29c129.87,0,199.17-48.9,259.33-115.94,70-78,195.33-55.33,269.15-104.82,67.16-45.03,86.06-106.91,89.61-121.01"/><path class="cls-12" d="m2481.61-48.83c23.22,68.63,28.51,144.29,11.54,220.16-49.34,220.53-268.11,359.3-488.64,309.96-220.53-49.34-359.3-268.11-309.96-488.64"/><path class="cls-10" d="m942.78,163.01c49.31-10.27,99.1-16.97,136.01-41.72,76.25-51.12,90.29-123.96,90.29-123.96"/><path class="cls-15" d="m578.51,341.24c69.12-4.09,119.76-23.36,161.48-52.09"/><path class="cls-16" d="m129.78,414.45c58.69-43.06,151.8-64.3,236.46-70.45"/><circle class="cls-4" cx="343.47" cy="345.97" r="15"/><circle class="cls-4" cx="634.92" cy="333.83" r="15"/><circle class="cls-1" cx="1022.94" cy="145.54" r="15"/><circle class="cls-7" cx="1686.92" cy="127.51" r="15"/><circle class="cls-7" cx="2101.18" cy="491.25" r="15"/><circle class="cls-7" cx="2468.16" cy="246.3" r="15"/><circle class="cls-5" cx="1046.02" cy="137.95" r="15"/><circle class="cls-4" cx="217.61" cy="371.61" r="15"/><circle class="cls-2" cx="457.37" cy="341.24" r="15"/><circle class="cls-2" cx="790.62" cy="246.3" r="15"/><circle class="cls-3" cx="366.25" cy="343.99" r="15"/><path class="cls-17" d="m1828.29,393.39c-63.3-54.08-108.87-126.51-130.18-207.03"/><path class="cls-14" d="m2386.01,368.53c-57.32,58.33-131.33,98.69-212.22,114.85"/><path class="cls-13" d="m2481.61-48.83c23.22,68.63,28.51,144.29,11.54,220.16"/><circle class="cls-8" cx="1704.04" cy="206.85" r="15"/><circle class="cls-8" cx="1768.42" cy="329.88" r="15"/><circle class="cls-8" cx="2247.1" cy="461.25" r="15"/><circle class="cls-8" cx="2293.5" cy="439.23" r="15"/><circle class="cls-6" cx="2492.94" cy="171.94" r="15"/><circle class="cls-6" cx="1698.12" cy="186.36" r="15"/></svg>